<svg width="230" height="65" viewBox="0 0 230 65" fill="none" xmlns="http://www.w3.org/2000/svg">
<rect y="0.800293" width="230" height="64" rx="12" fill="#1C252E"/>
<g clip-path="url(#clip0_10026_1312)">
<path d="M24.8156 18.269L37.6221 31.0732L40.9268 27.7685C36.4111 25.0287 30.363 21.3533 27.643 19.7008L25.8207 18.5969C25.4986 18.4006 25.1537 18.295 24.8156 18.269ZM22.8607 19.8021C22.8348 19.9428 22.8125 20.0842 22.8125 20.236V45.5406C22.8125 45.6467 22.8338 45.7455 22.8487 45.8467L35.877 32.8184L22.8607 19.8021ZM43.0986 29.087L39.3673 32.8184L43.0336 36.4846C44.9761 35.3073 46.3215 34.4897 46.4708 34.3996C47.1311 33.996 47.504 33.3872 47.4928 32.722C47.483 32.0691 47.11 31.4854 46.4757 31.1262C46.3337 31.0448 45.0066 30.2434 43.0986 29.087ZM37.6221 34.5635L24.8541 47.3315C25.1022 47.2884 25.3499 47.2144 25.5869 47.0712C25.9152 46.8713 34.7836 41.4907 40.8618 37.8031L37.6221 34.5635Z" fill="white"/>
</g>
<path d="M72.664 45.9763C71.7467 45.9763 70.912 45.7416 70.16 45.2723C69.4133 44.803 68.8187 44.1176 68.376 43.2163C67.9333 42.315 67.712 41.219 67.712 39.9283C67.712 38.6323 67.9413 37.531 68.4 36.6243C68.8587 35.7176 69.4773 35.027 70.256 34.5523C71.04 34.0723 71.9147 33.8323 72.88 33.8323C73.68 33.8323 74.3573 33.9656 74.912 34.2323C75.472 34.4936 75.9253 34.8323 76.272 35.2483C76.624 35.6643 76.8773 36.1016 77.032 36.5603C77.192 37.019 77.272 37.4456 77.272 37.8403C77.272 37.8563 77.272 37.8723 77.272 37.8883C77.272 37.9043 77.272 37.9203 77.272 37.9363H75.224C75.224 37.9203 75.224 37.9043 75.224 37.8883C75.224 37.8723 75.224 37.8563 75.224 37.8403C75.224 37.563 75.176 37.291 75.08 37.0243C74.984 36.7576 74.8373 36.515 74.64 36.2963C74.4427 36.0776 74.1973 35.9043 73.904 35.7763C73.6107 35.6483 73.2693 35.5843 72.88 35.5843C72.352 35.5843 71.856 35.731 71.392 36.0243C70.9333 36.3176 70.56 36.7843 70.272 37.4243C69.9893 38.059 69.848 38.8936 69.848 39.9283C69.848 40.7123 69.928 41.379 70.088 41.9283C70.248 42.4776 70.464 42.923 70.736 43.2643C71.0133 43.6056 71.328 43.8563 71.68 44.0163C72.0373 44.171 72.4133 44.2483 72.808 44.2483C73.3413 44.2483 73.784 44.1576 74.136 43.9763C74.4933 43.795 74.7707 43.5683 74.968 43.2963C75.1707 43.0243 75.2987 42.7576 75.352 42.4963V41.5763H72.832V39.9923H77.24V45.8003H76.024L75.848 44.4883C75.8107 44.5843 75.7227 44.715 75.584 44.8803C75.4507 45.0456 75.2587 45.2136 75.008 45.3843C74.7573 45.5496 74.4373 45.6883 74.048 45.8003C73.664 45.9176 73.2027 45.9763 72.664 45.9763ZM83.5289 45.9683C82.6329 45.9683 81.8435 45.7816 81.1609 45.4083C80.4782 45.0296 79.9422 44.507 79.5529 43.8403C79.1689 43.1736 78.9769 42.411 78.9769 41.5523C78.9769 40.6883 79.1689 39.9283 79.5529 39.2723C79.9422 38.611 80.4782 38.0936 81.1609 37.7203C81.8435 37.347 82.6329 37.1603 83.5289 37.1603C84.4249 37.1603 85.2142 37.347 85.8969 37.7203C86.5795 38.0936 87.1129 38.611 87.4969 39.2723C87.8862 39.9283 88.0809 40.6883 88.0809 41.5523C88.0809 42.411 87.8862 43.1736 87.4969 43.8403C87.1129 44.507 86.5795 45.0296 85.8969 45.4083C85.2142 45.7816 84.4249 45.9683 83.5289 45.9683ZM83.5289 44.2483C84.0142 44.2483 84.4382 44.1363 84.8009 43.9123C85.1635 43.6883 85.4462 43.3763 85.6489 42.9763C85.8515 42.571 85.9529 42.0963 85.9529 41.5523C85.9529 41.0083 85.8515 40.539 85.6489 40.1443C85.4462 39.7443 85.1635 39.435 84.8009 39.2163C84.4382 38.9976 84.0142 38.8883 83.5289 38.8883C83.0489 38.8883 82.6249 38.9976 82.2569 39.2163C81.8942 39.435 81.6115 39.7443 81.4089 40.1443C81.2062 40.539 81.1049 41.0083 81.1049 41.5523C81.1049 42.0963 81.2062 42.571 81.4089 42.9763C81.6115 43.3763 81.8942 43.6883 82.2569 43.9123C82.6249 44.1363 83.0489 44.2483 83.5289 44.2483ZM93.9976 45.9683C93.1016 45.9683 92.3123 45.7816 91.6296 45.4083C90.947 45.0296 90.411 44.507 90.0216 43.8403C89.6376 43.1736 89.4456 42.411 89.4456 41.5523C89.4456 40.6883 89.6376 39.9283 90.0216 39.2723C90.411 38.611 90.947 38.0936 91.6296 37.7203C92.3123 37.347 93.1016 37.1603 93.9976 37.1603C94.8936 37.1603 95.683 37.347 96.3656 37.7203C97.0483 38.0936 97.5816 38.611 97.9656 39.2723C98.355 39.9283 98.5496 40.6883 98.5496 41.5523C98.5496 42.411 98.355 43.1736 97.9656 43.8403C97.5816 44.507 97.0483 45.0296 96.3656 45.4083C95.683 45.7816 94.8936 45.9683 93.9976 45.9683ZM93.9976 44.2483C94.483 44.2483 94.907 44.1363 95.2696 43.9123C95.6323 43.6883 95.915 43.3763 96.1176 42.9763C96.3203 42.571 96.4216 42.0963 96.4216 41.5523C96.4216 41.0083 96.3203 40.539 96.1176 40.1443C95.915 39.7443 95.6323 39.435 95.2696 39.2163C94.907 38.9976 94.483 38.8883 93.9976 38.8883C93.5176 38.8883 93.0936 38.9976 92.7256 39.2163C92.363 39.435 92.0803 39.7443 91.8776 40.1443C91.675 40.539 91.5736 41.0083 91.5736 41.5523C91.5736 42.0963 91.675 42.571 91.8776 42.9763C92.0803 43.3763 92.363 43.6883 92.7256 43.9123C93.0936 44.1363 93.5176 44.2483 93.9976 44.2483ZM106.002 44.9603C106.504 45.0083 106.944 45.1016 107.322 45.2403C107.701 45.379 107.997 45.5843 108.21 45.8563C108.424 46.1336 108.53 46.5016 108.53 46.9603C108.53 47.4723 108.357 47.915 108.01 48.2883C107.664 48.6616 107.154 48.9496 106.482 49.1523C105.816 49.355 104.994 49.4563 104.018 49.4563C102.6 49.4563 101.509 49.251 100.746 48.8403C99.9837 48.435 99.6024 47.883 99.6024 47.1843C99.6024 46.987 99.6264 46.8083 99.6744 46.6483C99.7224 46.4883 99.781 46.355 99.8504 46.2483L101.778 46.5283C101.746 46.571 101.714 46.6376 101.682 46.7283C101.65 46.8243 101.634 46.939 101.634 47.0723C101.634 47.403 101.856 47.6403 102.298 47.7843C102.746 47.9336 103.341 48.0083 104.082 48.0083C104.626 48.0083 105.08 47.971 105.442 47.8963C105.81 47.8216 106.088 47.715 106.274 47.5763C106.466 47.4376 106.562 47.275 106.562 47.0883C106.562 46.811 106.437 46.6323 106.186 46.5523C105.936 46.4723 105.637 46.419 105.29 46.3923L102.066 46.0963C101.49 46.0376 101.016 45.867 100.642 45.5843C100.274 45.3016 100.09 44.9283 100.09 44.4643C100.09 44.1816 100.165 43.9203 100.314 43.6803C100.469 43.4403 100.645 43.2403 100.842 43.0803C101.04 42.915 101.208 42.8136 101.346 42.7763L102.546 43.3683C102.434 43.3843 102.301 43.4563 102.146 43.5843C101.997 43.7123 101.922 43.8643 101.922 44.0403C101.922 44.2056 101.997 44.3443 102.146 44.4563C102.296 44.563 102.584 44.6376 103.01 44.6803L106.002 44.9603ZM106.954 37.3043H108.842L108.074 40.6003C107.93 41.219 107.698 41.7736 107.378 42.2643C107.058 42.755 106.632 43.1416 106.098 43.4243C105.565 43.707 104.893 43.8483 104.082 43.8483C103.24 43.8483 102.512 43.7123 101.898 43.4403C101.29 43.163 100.821 42.7763 100.49 42.2803C100.16 41.779 99.9944 41.203 99.9944 40.5523C99.9944 39.8856 100.162 39.299 100.498 38.7923C100.84 38.2803 101.306 37.8803 101.898 37.5923C102.496 37.3043 103.17 37.1603 103.922 37.1603C104.53 37.1603 105.077 37.2616 105.562 37.4643C106.048 37.6616 106.434 37.9203 106.722 38.2403C107.016 38.5603 107.173 38.9016 107.194 39.2643L106.722 39.3523L106.954 37.3043ZM104.074 42.2243C104.485 42.2243 104.84 42.1576 105.138 42.0243C105.437 41.891 105.669 41.699 105.834 41.4483C106 41.1923 106.082 40.883 106.082 40.5203C106.082 40.163 106 39.8563 105.834 39.6003C105.669 39.3443 105.437 39.1496 105.138 39.0163C104.84 38.8776 104.488 38.8083 104.082 38.8083C103.688 38.8083 103.338 38.8776 103.034 39.0163C102.73 39.155 102.49 39.355 102.314 39.6163C102.144 39.8723 102.058 40.179 102.058 40.5363C102.058 40.8936 102.141 41.2003 102.306 41.4563C102.477 41.707 102.712 41.899 103.01 42.0323C103.314 42.1603 103.669 42.2243 104.074 42.2243ZM112.451 33.2963V45.8003H110.379V33.2963H112.451ZM115.387 42.2323V40.7363H121.331L121.091 41.1363C121.091 41.1043 121.091 41.0696 121.091 41.0323C121.091 40.9896 121.091 40.955 121.091 40.9283C121.091 40.5603 121.008 40.2163 120.843 39.8963C120.678 39.571 120.427 39.3096 120.091 39.1123C119.755 38.9096 119.328 38.8083 118.811 38.8083C118.299 38.8083 117.854 38.9176 117.475 39.1363C117.102 39.3496 116.811 39.659 116.603 40.0643C116.4 40.4696 116.299 40.955 116.299 41.5203C116.299 42.1016 116.398 42.603 116.595 43.0243C116.792 43.4403 117.08 43.7603 117.459 43.9843C117.843 44.203 118.31 44.3123 118.859 44.3123C119.232 44.3123 119.555 44.2776 119.827 44.2083C120.099 44.139 120.32 44.0456 120.491 43.9283C120.667 43.8056 120.798 43.675 120.883 43.5363C120.974 43.3976 121.027 43.259 121.043 43.1203H123.139C123.107 43.4776 122.987 43.827 122.779 44.1683C122.576 44.5043 122.291 44.811 121.923 45.0883C121.555 45.3603 121.107 45.579 120.579 45.7443C120.056 45.9043 119.459 45.9843 118.787 45.9843C117.875 45.9843 117.078 45.7976 116.395 45.4243C115.712 45.051 115.179 44.531 114.795 43.8643C114.416 43.1976 114.227 42.435 114.227 41.5763C114.227 40.6963 114.419 39.9256 114.803 39.2643C115.192 38.603 115.731 38.0883 116.419 37.7203C117.107 37.347 117.896 37.1603 118.787 37.1603C119.704 37.1603 120.496 37.347 121.163 37.7203C121.835 38.0936 122.352 38.6136 122.715 39.2803C123.078 39.9416 123.259 40.7123 123.259 41.5923C123.259 41.7043 123.256 41.8243 123.251 41.9523C123.246 42.0803 123.238 42.1736 123.227 42.2323H115.387ZM131.082 45.8003H128.97V34.0003H132.762C133.668 34.0003 134.434 34.1736 135.058 34.5203C135.687 34.8616 136.164 35.3283 136.49 35.9203C136.82 36.507 136.986 37.163 136.986 37.8883C136.986 38.619 136.82 39.2883 136.49 39.8963C136.159 40.5043 135.676 40.9923 135.042 41.3603C134.412 41.723 133.652 41.9043 132.762 41.9043H131.082V45.8003ZM131.082 41.2323L130.13 40.2323H132.53C133.02 40.2323 133.439 40.139 133.786 39.9523C134.132 39.7603 134.396 39.491 134.578 39.1443C134.764 38.7923 134.858 38.3736 134.858 37.8883C134.858 37.403 134.767 36.9976 134.586 36.6723C134.41 36.3416 134.148 36.0936 133.802 35.9283C133.455 35.763 133.031 35.6803 132.53 35.6803H130.13L131.082 34.6323V41.2323ZM140.842 33.2963V45.8003H138.77V33.2963H140.842ZM145.906 45.9763C145.271 45.9763 144.714 45.8776 144.234 45.6803C143.754 45.4776 143.378 45.187 143.106 44.8083C142.834 44.4296 142.698 43.9736 142.698 43.4403C142.698 42.859 142.855 42.3816 143.17 42.0083C143.49 41.6296 143.919 41.339 144.458 41.1363C144.996 40.9283 145.594 40.795 146.25 40.7363C147.22 40.6403 147.898 40.5496 148.282 40.4643C148.671 40.3736 148.866 40.2296 148.866 40.0323C148.866 40.027 148.866 40.0243 148.866 40.0243C148.866 40.019 148.866 40.0163 148.866 40.0163C148.866 39.643 148.698 39.355 148.362 39.1523C148.026 38.9496 147.551 38.8483 146.938 38.8483C146.292 38.8483 145.796 38.963 145.45 39.1923C145.108 39.4163 144.938 39.7736 144.938 40.2643H142.858C142.858 39.5976 143.034 39.035 143.386 38.5763C143.743 38.1123 144.231 37.7603 144.85 37.5203C145.468 37.2803 146.17 37.1603 146.954 37.1603C147.684 37.1603 148.354 37.2696 148.962 37.4883C149.57 37.707 150.058 38.0376 150.426 38.4803C150.794 38.923 150.977 39.475 150.977 40.1363C150.977 40.2483 150.977 40.3603 150.977 40.4723C150.977 40.5843 150.977 40.6963 150.977 40.8083V44.0083C150.977 44.211 150.983 44.411 150.994 44.6083C151.01 44.8003 151.039 44.9736 151.082 45.1283C151.135 45.299 151.199 45.443 151.274 45.5603C151.348 45.6776 151.407 45.7576 151.45 45.8003H149.37C149.332 45.763 149.279 45.691 149.21 45.5843C149.146 45.4723 149.087 45.3443 149.034 45.2003C148.98 45.0403 148.94 44.8696 148.914 44.6883C148.887 44.5016 148.874 44.2963 148.874 44.0723L149.29 44.3603C149.13 44.6856 148.884 44.971 148.554 45.2163C148.228 45.4563 147.839 45.643 147.386 45.7763C146.932 45.9096 146.439 45.9763 145.906 45.9763ZM146.418 44.3203C146.855 44.3203 147.26 44.2456 147.634 44.0963C148.007 43.947 148.308 43.7176 148.538 43.4083C148.767 43.0936 148.882 42.691 148.882 42.2003V41.0643L149.394 41.6403C149.052 41.7683 148.642 41.875 148.162 41.9603C147.682 42.0403 147.196 42.1043 146.706 42.1523C146.076 42.211 145.602 42.3203 145.282 42.4803C144.967 42.6403 144.81 42.9016 144.81 43.2643C144.81 43.6163 144.943 43.8803 145.21 44.0563C145.476 44.2323 145.879 44.3203 146.418 44.3203ZM153.202 49.4483C152.951 49.4483 152.727 49.435 152.53 49.4083C152.332 49.387 152.21 49.3656 152.162 49.3443V47.7043C152.231 47.7363 152.348 47.7603 152.514 47.7763C152.684 47.7976 152.86 47.8083 153.042 47.8083C153.335 47.8083 153.588 47.7496 153.802 47.6323C154.02 47.515 154.207 47.3523 154.362 47.1443C154.516 46.9416 154.639 46.7043 154.73 46.4323L154.914 45.8963L151.986 37.3043H154.186L156.194 44.3923H155.938L157.898 37.3043H160.058L157.082 46.3203C156.874 46.9443 156.62 47.491 156.322 47.9603C156.028 48.4296 155.636 48.795 155.146 49.0563C154.655 49.3176 154.007 49.4483 153.202 49.4483ZM169.239 45.9763C168.402 45.9763 167.671 45.843 167.047 45.5763C166.423 45.3096 165.938 44.9096 165.591 44.3763C165.245 43.8376 165.071 43.171 165.071 42.3763C165.071 42.2856 165.071 42.2056 165.071 42.1363C165.071 42.0616 165.071 41.979 165.071 41.8883H167.175C167.175 41.9683 167.175 42.043 167.175 42.1123C167.175 42.1763 167.175 42.251 167.175 42.3363C167.175 42.9763 167.349 43.4563 167.695 43.7763C168.047 44.091 168.565 44.2483 169.247 44.2483C169.935 44.2483 170.461 44.1336 170.823 43.9043C171.191 43.675 171.375 43.307 171.375 42.8003C171.375 42.4323 171.25 42.1203 170.999 41.8643C170.754 41.603 170.415 41.3736 169.983 41.1763C169.551 40.979 169.061 40.795 168.511 40.6243C167.893 40.4323 167.33 40.1843 166.823 39.8803C166.317 39.5763 165.911 39.1923 165.607 38.7283C165.303 38.2643 165.151 37.6936 165.151 37.0163C165.151 36.339 165.325 35.763 165.671 35.2883C166.023 34.8136 166.503 34.4536 167.111 34.2083C167.725 33.9576 168.421 33.8323 169.199 33.8323C170.015 33.8323 170.733 33.9603 171.351 34.2163C171.975 34.4723 172.463 34.8536 172.815 35.3603C173.167 35.867 173.343 36.499 173.343 37.2563C173.343 37.3576 173.343 37.4456 173.343 37.5203C173.343 37.595 173.343 37.6803 173.343 37.7763H171.231C171.231 37.707 171.231 37.6376 171.231 37.5683C171.231 37.4936 171.231 37.4216 171.231 37.3523C171.231 36.7443 171.066 36.2963 170.735 36.0083C170.405 35.715 169.903 35.5683 169.231 35.5683C168.575 35.5683 168.071 35.683 167.719 35.9123C167.367 36.1416 167.191 36.507 167.191 37.0083C167.191 37.3816 167.311 37.6936 167.551 37.9443C167.791 38.195 168.119 38.4136 168.535 38.6003C168.957 38.7816 169.434 38.9656 169.967 39.1523C170.677 39.387 171.29 39.6536 171.807 39.9523C172.325 40.2456 172.725 40.6136 173.007 41.0563C173.29 41.4936 173.431 42.051 173.431 42.7283C173.431 43.4216 173.255 44.011 172.903 44.4963C172.557 44.9763 172.069 45.3443 171.439 45.6003C170.815 45.851 170.082 45.9763 169.239 45.9763ZM179.101 45.9603C178.797 45.9603 178.487 45.931 178.173 45.8723C177.858 45.8136 177.57 45.7043 177.309 45.5443C177.047 45.3843 176.837 45.1496 176.677 44.8403C176.517 44.531 176.437 44.123 176.437 43.6163C176.437 43.499 176.437 43.3816 176.437 43.2643C176.437 43.1416 176.437 43.0163 176.437 42.8883V38.9843H174.429V37.3043H175.245C175.522 37.3043 175.741 37.2936 175.901 37.2723C176.061 37.2456 176.178 37.187 176.253 37.0963C176.327 37.0056 176.375 36.8643 176.397 36.6723C176.423 36.475 176.437 36.203 176.437 35.8563V34.5043H178.549V37.3043H181.077V38.9843H178.549V42.3923C178.549 42.4936 178.549 42.595 178.549 42.6963C178.549 42.7923 178.549 42.8856 178.549 42.9763C178.549 43.371 178.597 43.6883 178.693 43.9283C178.789 44.1683 179.015 44.2883 179.373 44.2883C179.543 44.2883 179.703 44.2723 179.853 44.2403C180.007 44.2083 180.122 44.1763 180.197 44.1443V45.7923C180.095 45.8296 179.949 45.867 179.757 45.9043C179.565 45.9416 179.346 45.9603 179.101 45.9603ZM186.607 45.9683C185.711 45.9683 184.922 45.7816 184.239 45.4083C183.556 45.0296 183.02 44.507 182.631 43.8403C182.247 43.1736 182.055 42.411 182.055 41.5523C182.055 40.6883 182.247 39.9283 182.631 39.2723C183.02 38.611 183.556 38.0936 184.239 37.7203C184.922 37.347 185.711 37.1603 186.607 37.1603C187.503 37.1603 188.292 37.347 188.975 37.7203C189.658 38.0936 190.191 38.611 190.575 39.2723C190.964 39.9283 191.159 40.6883 191.159 41.5523C191.159 42.411 190.964 43.1736 190.575 43.8403C190.191 44.507 189.658 45.0296 188.975 45.4083C188.292 45.7816 187.503 45.9683 186.607 45.9683ZM186.607 44.2483C187.092 44.2483 187.516 44.1363 187.879 43.9123C188.242 43.6883 188.524 43.3763 188.727 42.9763C188.93 42.571 189.031 42.0963 189.031 41.5523C189.031 41.0083 188.93 40.539 188.727 40.1443C188.524 39.7443 188.242 39.435 187.879 39.2163C187.516 38.9976 187.092 38.8883 186.607 38.8883C186.127 38.8883 185.703 38.9976 185.335 39.2163C184.972 39.435 184.69 39.7443 184.487 40.1443C184.284 40.539 184.183 41.0083 184.183 41.5523C184.183 42.0963 184.284 42.571 184.487 42.9763C184.69 43.3763 184.972 43.6883 185.335 43.9123C185.703 44.1363 186.127 44.2483 186.607 44.2483ZM192.9 45.8003V37.3043H195.004V40.1283L194.516 39.8563C194.569 39.4883 194.668 39.1416 194.812 38.8163C194.956 38.4856 195.148 38.1976 195.388 37.9523C195.628 37.7016 195.918 37.507 196.26 37.3683C196.601 37.2296 196.99 37.1603 197.428 37.1603C197.774 37.1603 198.046 37.187 198.244 37.2403C198.446 37.2883 198.572 37.3283 198.62 37.3603L198.236 39.2883C198.182 39.251 198.073 39.2056 197.908 39.1523C197.748 39.0936 197.532 39.0643 197.26 39.0643C196.828 39.0643 196.465 39.139 196.172 39.2883C195.884 39.4323 195.654 39.6296 195.484 39.8803C195.313 40.1256 195.19 40.3976 195.116 40.6963C195.041 40.9896 195.004 41.283 195.004 41.5763V45.8003H192.9ZM200.574 42.2323V40.7363H206.518L206.278 41.1363C206.278 41.1043 206.278 41.0696 206.278 41.0323C206.278 40.9896 206.278 40.955 206.278 40.9283C206.278 40.5603 206.196 40.2163 206.03 39.8963C205.865 39.571 205.614 39.3096 205.278 39.1123C204.942 38.9096 204.516 38.8083 203.998 38.8083C203.486 38.8083 203.041 38.9176 202.662 39.1363C202.289 39.3496 201.998 39.659 201.79 40.0643C201.588 40.4696 201.486 40.955 201.486 41.5203C201.486 42.1016 201.585 42.603 201.782 43.0243C201.98 43.4403 202.268 43.7603 202.646 43.9843C203.03 44.203 203.497 44.3123 204.046 44.3123C204.42 44.3123 204.742 44.2776 205.014 44.2083C205.286 44.139 205.508 44.0456 205.678 43.9283C205.854 43.8056 205.985 43.675 206.07 43.5363C206.161 43.3976 206.214 43.259 206.23 43.1203H208.326C208.294 43.4776 208.174 43.827 207.966 44.1683C207.764 44.5043 207.478 44.811 207.11 45.0883C206.742 45.3603 206.294 45.579 205.766 45.7443C205.244 45.9043 204.646 45.9843 203.974 45.9843C203.062 45.9843 202.265 45.7976 201.582 45.4243C200.9 45.051 200.366 44.531 199.982 43.8643C199.604 43.1976 199.414 42.435 199.414 41.5763C199.414 40.6963 199.606 39.9256 199.99 39.2643C200.38 38.603 200.918 38.0883 201.606 37.7203C202.294 37.347 203.084 37.1603 203.974 37.1603C204.892 37.1603 205.684 37.347 206.35 37.7203C207.022 38.0936 207.54 38.6136 207.902 39.2803C208.265 39.9416 208.446 40.7123 208.446 41.5923C208.446 41.7043 208.444 41.8243 208.438 41.9523C208.433 42.0803 208.425 42.1736 208.414 42.2323H200.574Z" fill="white"/>
<path d="M71.872 25.9403C71.102 25.9403 70.402 25.7303 69.772 25.3103C69.142 24.8903 68.6403 24.286 68.267 23.4973C67.8937 22.7086 67.707 21.759 67.707 20.6483C67.707 19.5376 67.896 18.588 68.274 17.7993C68.652 17.0106 69.163 16.4063 69.807 15.9863C70.4557 15.5616 71.1813 15.3493 71.984 15.3493C72.6373 15.3493 73.1903 15.4636 73.643 15.6923C74.1003 15.9163 74.4713 16.208 74.756 16.5673C75.0453 16.922 75.2553 17.3 75.386 17.7013C75.5167 18.098 75.582 18.4713 75.582 18.8213C75.582 18.8353 75.582 18.8493 75.582 18.8633C75.582 18.8773 75.582 18.8913 75.582 18.9053H74.42C74.42 18.8913 74.42 18.8773 74.42 18.8633C74.42 18.8493 74.42 18.8353 74.42 18.8213C74.42 18.5413 74.371 18.2613 74.273 17.9813C74.1797 17.6966 74.0327 17.44 73.832 17.2113C73.6313 16.978 73.377 16.7913 73.069 16.6513C72.7657 16.5113 72.404 16.4413 71.984 16.4413C71.4193 16.4413 70.9037 16.5953 70.437 16.9033C69.975 17.2113 69.604 17.678 69.324 18.3033C69.0487 18.924 68.911 19.7056 68.911 20.6483C68.911 21.3716 68.988 21.9993 69.142 22.5313C69.296 23.0586 69.5083 23.495 69.779 23.8403C70.0497 24.1856 70.3647 24.4423 70.724 24.6103C71.088 24.7783 71.48 24.8623 71.9 24.8623C72.4553 24.8623 72.9103 24.7666 73.265 24.5753C73.6243 24.384 73.902 24.146 74.098 23.8613C74.294 23.572 74.42 23.2873 74.476 23.0073V21.9223H71.949V20.9213H75.554V25.8003H74.665L74.602 24.6523C74.5647 24.7223 74.4877 24.8273 74.371 24.9673C74.2543 25.1073 74.0887 25.252 73.874 25.4013C73.664 25.5506 73.3933 25.679 73.062 25.7863C72.7307 25.889 72.334 25.9403 71.872 25.9403ZM78.0263 22.5593V21.4953H83.7733L83.5633 21.8453C83.5633 21.8173 83.5633 21.7916 83.5633 21.7683C83.5633 21.7403 83.5633 21.7146 83.5633 21.6913C83.5633 21.262 83.4723 20.87 83.2903 20.5153C83.113 20.156 82.847 19.869 82.4923 19.6543C82.1376 19.4396 81.699 19.3323 81.1763 19.3323C80.649 19.3323 80.1846 19.4443 79.7833 19.6683C79.382 19.8923 79.0693 20.2096 78.8453 20.6203C78.6213 21.0263 78.5093 21.5116 78.5093 22.0763C78.5093 22.6503 78.6166 23.145 78.8313 23.5603C79.0506 23.9756 79.361 24.2953 79.7623 24.5193C80.1636 24.7433 80.6396 24.8553 81.1903 24.8553C81.5823 24.8553 81.923 24.8156 82.2123 24.7363C82.5016 24.6523 82.7396 24.5426 82.9263 24.4073C83.1176 24.2673 83.2623 24.1156 83.3603 23.9523C83.4583 23.789 83.5166 23.6256 83.5353 23.4623H84.7253C84.702 23.761 84.6086 24.0573 84.4453 24.3513C84.282 24.6453 84.051 24.9136 83.7523 25.1563C83.4536 25.3943 83.0873 25.5856 82.6533 25.7303C82.2193 25.875 81.72 25.9473 81.1553 25.9473C80.4086 25.9473 79.7506 25.784 79.1813 25.4573C78.612 25.1306 78.164 24.678 77.8373 24.0993C77.5153 23.5206 77.3543 22.8556 77.3543 22.1043C77.3543 21.3436 77.5176 20.6763 77.8443 20.1023C78.171 19.5236 78.6213 19.071 79.1953 18.7443C79.7693 18.4176 80.425 18.2543 81.1623 18.2543C81.9136 18.2543 82.5646 18.4176 83.1153 18.7443C83.666 19.071 84.0906 19.519 84.3893 20.0883C84.688 20.653 84.8373 21.297 84.8373 22.0203C84.8373 22.095 84.835 22.193 84.8303 22.3143C84.8256 22.4356 84.8186 22.5173 84.8093 22.5593H78.0263ZM89.4817 25.9123C89.253 25.9123 89.029 25.8866 88.8097 25.8353C88.5904 25.784 88.392 25.693 88.2147 25.5623C88.042 25.427 87.9044 25.238 87.8017 24.9953C87.699 24.748 87.6477 24.4306 87.6477 24.0433C87.6477 23.9453 87.6477 23.845 87.6477 23.7423C87.6477 23.635 87.6477 23.523 87.6477 23.4063V19.4163H85.8347V18.3663H86.9967C87.1554 18.3663 87.279 18.3616 87.3677 18.3523C87.4564 18.3383 87.5194 18.308 87.5567 18.2613C87.5987 18.21 87.6244 18.133 87.6337 18.0303C87.643 17.923 87.6477 17.776 87.6477 17.5893V15.9023H88.8447V18.3663H91.1687V19.4163H88.8447V23.0213C88.8447 23.124 88.8447 23.2243 88.8447 23.3223C88.8447 23.4203 88.8447 23.5113 88.8447 23.5953C88.8447 23.992 88.8914 24.3023 88.9847 24.5263C89.0827 24.7503 89.2997 24.8623 89.6357 24.8623C89.771 24.8623 89.8994 24.8506 90.0207 24.8273C90.142 24.804 90.233 24.7806 90.2937 24.7573V25.7933C90.2144 25.8213 90.1024 25.847 89.9577 25.8703C89.8177 25.8983 89.659 25.9123 89.4817 25.9123ZM96.159 25.8003V15.4753H97.335V25.8003H96.159ZM102.388 25.9123C102.159 25.9123 101.935 25.8866 101.716 25.8353C101.497 25.784 101.298 25.693 101.121 25.5623C100.948 25.427 100.811 25.238 100.708 24.9953C100.605 24.748 100.554 24.4306 100.554 24.0433C100.554 23.9453 100.554 23.845 100.554 23.7423C100.554 23.635 100.554 23.523 100.554 23.4063V19.4163H98.741V18.3663H99.903C100.062 18.3663 100.185 18.3616 100.274 18.3523C100.363 18.3383 100.426 18.308 100.463 18.2613C100.505 18.21 100.531 18.133 100.54 18.0303C100.549 17.923 100.554 17.776 100.554 17.5893V15.9023H101.751V18.3663H104.075V19.4163H101.751V23.0213C101.751 23.124 101.751 23.2243 101.751 23.3223C101.751 23.4203 101.751 23.5113 101.751 23.5953C101.751 23.992 101.798 24.3023 101.891 24.5263C101.989 24.7503 102.206 24.8623 102.542 24.8623C102.677 24.8623 102.806 24.8506 102.927 24.8273C103.048 24.804 103.139 24.7806 103.2 24.7573V25.7933C103.121 25.8213 103.009 25.847 102.864 25.8703C102.724 25.8983 102.565 25.9123 102.388 25.9123ZM112.866 25.9403C112.264 25.9403 111.711 25.8213 111.207 25.5833C110.708 25.3453 110.272 25 109.898 24.5473C109.53 24.09 109.243 23.5323 109.037 22.8743C108.837 22.2163 108.736 21.4673 108.736 20.6273C108.736 19.7873 108.837 19.0406 109.037 18.3873C109.243 17.7293 109.53 17.1763 109.898 16.7283C110.272 16.2756 110.71 15.9326 111.214 15.6993C111.718 15.466 112.269 15.3493 112.866 15.3493C113.468 15.3493 114.021 15.466 114.525 15.6993C115.029 15.9326 115.466 16.2756 115.834 16.7283C116.208 17.1763 116.495 17.7293 116.695 18.3873C116.901 19.0406 117.003 19.7873 117.003 20.6273C117.003 21.4673 116.901 22.2163 116.695 22.8743C116.495 23.5323 116.208 24.09 115.834 24.5473C115.466 25 115.029 25.3453 114.525 25.5833C114.021 25.8213 113.468 25.9403 112.866 25.9403ZM112.866 24.8623C113.44 24.8623 113.947 24.706 114.385 24.3933C114.824 24.0806 115.167 23.6116 115.414 22.9863C115.662 22.3563 115.785 21.57 115.785 20.6273C115.785 19.68 115.659 18.896 115.407 18.2753C115.16 17.6546 114.817 17.1926 114.378 16.8893C113.94 16.586 113.436 16.4343 112.866 16.4343C112.302 16.4343 111.798 16.586 111.354 16.8893C110.916 17.1926 110.57 17.6546 110.318 18.2753C110.071 18.896 109.947 19.68 109.947 20.6273C109.947 21.5746 110.071 22.3633 110.318 22.9933C110.57 23.6186 110.916 24.0876 111.354 24.4003C111.798 24.7083 112.302 24.8623 112.866 24.8623ZM124.1 25.8003V22.2373C124.1 22.0226 124.1 21.8476 124.1 21.7123C124.1 21.5723 124.1 21.4393 124.1 21.3133C124.1 20.926 124.035 20.5876 123.904 20.2983C123.773 20.009 123.568 19.785 123.288 19.6263C123.008 19.4676 122.642 19.3883 122.189 19.3883C121.792 19.3883 121.424 19.491 121.083 19.6963C120.747 19.897 120.476 20.17 120.271 20.5153C120.07 20.856 119.97 21.2386 119.97 21.6633L119.291 21.4043C119.291 20.821 119.433 20.2913 119.718 19.8153C120.007 19.3393 120.39 18.9613 120.866 18.6813C121.347 18.3966 121.869 18.2543 122.434 18.2543C123.008 18.2543 123.51 18.364 123.939 18.5833C124.368 18.8026 124.7 19.1176 124.933 19.5283C125.171 19.9343 125.29 20.4243 125.29 20.9983C125.29 21.2036 125.29 21.4276 125.29 21.6703C125.29 21.913 125.29 22.1393 125.29 22.3493V25.8003H124.1ZM118.78 25.8003V18.3663H119.97V25.8003H118.78Z" fill="white"/>
<defs>
<clipPath id="clip0_10026_1312">
<rect width="30" height="30" fill="white" transform="translate(20 17.8003)"/>
</clipPath>
</defs>
</svg>
