<svg width="230" height="65" viewBox="0 0 230 65" fill="none" xmlns="http://www.w3.org/2000/svg">
<rect y="0.800293" width="230" height="64" rx="12" fill="#0373F3"/>
<path d="M43.7664 17.8003C43.8354 17.8003 43.9044 17.8003 43.9773 17.8003C44.1465 19.6319 43.3484 21.0005 42.3785 21.9917C41.4269 22.9759 40.1239 23.9305 38.0161 23.7857C37.8756 21.9802 38.6749 20.7131 39.6435 19.7243C40.5418 18.8028 42.1885 17.9828 43.7664 17.8003Z" fill="white"/>
<path d="M50 39.9142C50 39.935 50 39.9533 50 39.9728C49.4118 41.767 48.5729 43.3046 47.549 44.7316C46.6145 46.027 45.4691 47.7703 43.4242 47.7703C41.657 47.7703 40.4832 46.6259 38.6721 46.5946C36.7565 46.5634 35.7029 47.5516 33.9513 47.8003C33.7509 47.8003 33.5506 47.8003 33.3541 47.8003C32.0679 47.6128 31.0298 46.5868 30.2736 45.6625C28.0437 42.931 26.3206 39.4025 26 34.8874C26 34.4447 26 34.0033 26 33.5606C26.1357 30.3292 27.6947 27.7018 29.7669 26.4285C30.8605 25.7514 32.3639 25.1747 34.0379 25.4324C34.7554 25.5444 35.4882 25.7918 36.1308 26.0366C36.7397 26.2722 37.5009 26.6902 38.2223 26.668C38.711 26.6537 39.197 26.3972 39.6896 26.2162C41.1321 25.6915 42.5463 25.09 44.4104 25.3726C46.6507 25.7137 48.2407 26.7162 49.2231 28.2629C47.328 29.4777 45.8298 31.3082 46.0857 34.4342C46.3133 37.2739 47.9524 38.9351 50 39.9142Z" fill="white"/>
<path d="M79.504 45.8003L82.552 33.9843H85.88L88.904 45.8003H86.736L84.208 35.2883H84.224L81.672 45.8003H79.504ZM81.472 42.9283V41.2403H86.96V42.9283H81.472ZM90.4622 49.2963V37.3043H92.5663V49.2963H90.4622ZM95.2463 45.9763C94.5849 45.9763 93.9716 45.8056 93.4062 45.4643C92.8463 45.1176 92.3929 44.6456 92.0463 44.0483C91.7049 43.451 91.5343 42.779 91.5343 42.0323C91.5343 42.011 91.5343 41.9923 91.5343 41.9763C91.5343 41.955 91.5343 41.9363 91.5343 41.9203L92.5743 41.8963C92.5743 41.907 92.5743 41.9203 92.5743 41.9363C92.5743 41.9523 92.5743 41.9656 92.5743 41.9763C92.5743 42.3923 92.6783 42.763 92.8863 43.0883C93.0943 43.4083 93.3636 43.6616 93.6943 43.8483C94.0303 44.0296 94.3876 44.1203 94.7663 44.1203C95.3796 44.1203 95.9023 43.9096 96.3343 43.4883C96.7663 43.067 96.9823 42.4136 96.9823 41.5283C96.9823 40.6376 96.7663 39.987 96.3343 39.5763C95.9076 39.1603 95.3849 38.9523 94.7663 38.9523C94.3929 38.9523 94.0383 39.043 93.7023 39.2243C93.3716 39.4003 93.0996 39.6456 92.8863 39.9603C92.6783 40.275 92.5743 40.643 92.5743 41.0643L91.5343 41.0163C91.5343 40.2643 91.7049 39.5976 92.0463 39.0163C92.3929 38.435 92.8463 37.9816 93.4062 37.6563C93.9716 37.3256 94.5849 37.1603 95.2463 37.1603C95.9343 37.1603 96.5743 37.3283 97.1663 37.6643C97.7636 38.0003 98.2436 38.4936 98.6063 39.1443C98.9743 39.795 99.1583 40.5896 99.1583 41.5283C99.1583 42.4936 98.9796 43.307 98.6223 43.9683C98.2649 44.6296 97.7903 45.131 97.1983 45.4723C96.6063 45.8083 95.9556 45.9763 95.2463 45.9763ZM100.9 49.2963V37.3043H103.004V49.2963H100.9ZM105.684 45.9763C105.022 45.9763 104.409 45.8056 103.844 45.4643C103.284 45.1176 102.83 44.6456 102.484 44.0483C102.142 43.451 101.972 42.779 101.972 42.0323C101.972 42.011 101.972 41.9923 101.972 41.9763C101.972 41.955 101.972 41.9363 101.972 41.9203L103.012 41.8963C103.012 41.907 103.012 41.9203 103.012 41.9363C103.012 41.9523 103.012 41.9656 103.012 41.9763C103.012 42.3923 103.116 42.763 103.324 43.0883C103.532 43.4083 103.801 43.6616 104.132 43.8483C104.468 44.0296 104.825 44.1203 105.204 44.1203C105.817 44.1203 106.34 43.9096 106.772 43.4883C107.204 43.067 107.42 42.4136 107.42 41.5283C107.42 40.6376 107.204 39.987 106.772 39.5763C106.345 39.1603 105.822 38.9523 105.204 38.9523C104.83 38.9523 104.476 39.043 104.14 39.2243C103.809 39.4003 103.537 39.6456 103.324 39.9603C103.116 40.275 103.012 40.643 103.012 41.0643L101.972 41.0163C101.972 40.2643 102.142 39.5976 102.484 39.0163C102.83 38.435 103.284 37.9816 103.844 37.6563C104.409 37.3256 105.022 37.1603 105.684 37.1603C106.372 37.1603 107.012 37.3283 107.604 37.6643C108.201 38.0003 108.681 38.4936 109.044 39.1443C109.412 39.795 109.596 40.5896 109.596 41.5283C109.596 42.4936 109.417 43.307 109.06 43.9683C108.702 44.6296 108.228 45.131 107.636 45.4723C107.044 45.8083 106.393 45.9763 105.684 45.9763ZM113.529 33.2963V45.8003H111.457V33.2963H113.529ZM116.465 42.2323V40.7363H122.409L122.169 41.1363C122.169 41.1043 122.169 41.0696 122.169 41.0323C122.169 40.9896 122.169 40.955 122.169 40.9283C122.169 40.5603 122.086 40.2163 121.921 39.8963C121.756 39.571 121.505 39.3096 121.169 39.1123C120.833 38.9096 120.406 38.8083 119.889 38.8083C119.377 38.8083 118.932 38.9176 118.553 39.1363C118.18 39.3496 117.889 39.659 117.681 40.0643C117.478 40.4696 117.377 40.955 117.377 41.5203C117.377 42.1016 117.476 42.603 117.673 43.0243C117.87 43.4403 118.158 43.7603 118.537 43.9843C118.921 44.203 119.388 44.3123 119.937 44.3123C120.31 44.3123 120.633 44.2776 120.905 44.2083C121.177 44.139 121.398 44.0456 121.569 43.9283C121.745 43.8056 121.876 43.675 121.961 43.5363C122.052 43.3976 122.105 43.259 122.121 43.1203H124.217C124.185 43.4776 124.065 43.827 123.857 44.1683C123.654 44.5043 123.369 44.811 123.001 45.0883C122.633 45.3603 122.185 45.579 121.657 45.7443C121.134 45.9043 120.537 45.9843 119.865 45.9843C118.953 45.9843 118.156 45.7976 117.473 45.4243C116.79 45.051 116.257 44.531 115.873 43.8643C115.494 43.1976 115.305 42.435 115.305 41.5763C115.305 40.6963 115.497 39.9256 115.881 39.2643C116.27 38.603 116.809 38.0883 117.497 37.7203C118.185 37.347 118.974 37.1603 119.865 37.1603C120.782 37.1603 121.574 37.347 122.241 37.7203C122.913 38.0936 123.43 38.6136 123.793 39.2803C124.156 39.9416 124.337 40.7123 124.337 41.5923C124.337 41.7043 124.334 41.8243 124.329 41.9523C124.324 42.0803 124.316 42.1736 124.305 42.2323H116.465ZM129.52 45.8003L132.568 33.9843H135.896L138.92 45.8003H136.752L134.224 35.2883H134.24L131.688 45.8003H129.52ZM131.488 42.9283V41.2403H136.976V42.9283H131.488ZM140.478 49.2963V37.3043H142.582V49.2963H140.478ZM145.262 45.9763C144.601 45.9763 143.987 45.8056 143.422 45.4643C142.862 45.1176 142.409 44.6456 142.062 44.0483C141.721 43.451 141.55 42.779 141.55 42.0323C141.55 42.011 141.55 41.9923 141.55 41.9763C141.55 41.955 141.55 41.9363 141.55 41.9203L142.59 41.8963C142.59 41.907 142.59 41.9203 142.59 41.9363C142.59 41.9523 142.59 41.9656 142.59 41.9763C142.59 42.3923 142.694 42.763 142.902 43.0883C143.11 43.4083 143.379 43.6616 143.71 43.8483C144.046 44.0296 144.403 44.1203 144.782 44.1203C145.395 44.1203 145.918 43.9096 146.35 43.4883C146.782 43.067 146.998 42.4136 146.998 41.5283C146.998 40.6376 146.782 39.987 146.35 39.5763C145.923 39.1603 145.401 38.9523 144.782 38.9523C144.409 38.9523 144.054 39.043 143.718 39.2243C143.387 39.4003 143.115 39.6456 142.902 39.9603C142.694 40.275 142.59 40.643 142.59 41.0643L141.55 41.0163C141.55 40.2643 141.721 39.5976 142.062 39.0163C142.409 38.435 142.862 37.9816 143.422 37.6563C143.987 37.3256 144.601 37.1603 145.262 37.1603C145.95 37.1603 146.59 37.3283 147.182 37.6643C147.779 38.0003 148.259 38.4936 148.622 39.1443C148.99 39.795 149.174 40.5896 149.174 41.5283C149.174 42.4936 148.995 43.307 148.638 43.9683C148.281 44.6296 147.806 45.131 147.214 45.4723C146.622 45.8083 145.971 45.9763 145.262 45.9763ZM150.915 49.2963V37.3043H153.019V49.2963H150.915ZM155.699 45.9763C155.038 45.9763 154.425 45.8056 153.859 45.4643C153.299 45.1176 152.846 44.6456 152.499 44.0483C152.158 43.451 151.987 42.779 151.987 42.0323C151.987 42.011 151.987 41.9923 151.987 41.9763C151.987 41.955 151.987 41.9363 151.987 41.9203L153.027 41.8963C153.027 41.907 153.027 41.9203 153.027 41.9363C153.027 41.9523 153.027 41.9656 153.027 41.9763C153.027 42.3923 153.131 42.763 153.339 43.0883C153.547 43.4083 153.817 43.6616 154.147 43.8483C154.483 44.0296 154.841 44.1203 155.219 44.1203C155.833 44.1203 156.355 43.9096 156.787 43.4883C157.219 43.067 157.435 42.4136 157.435 41.5283C157.435 40.6376 157.219 39.987 156.787 39.5763C156.361 39.1603 155.838 38.9523 155.219 38.9523C154.846 38.9523 154.491 39.043 154.155 39.2243C153.825 39.4003 153.553 39.6456 153.339 39.9603C153.131 40.275 153.027 40.643 153.027 41.0643L151.987 41.0163C151.987 40.2643 152.158 39.5976 152.499 39.0163C152.846 38.435 153.299 37.9816 153.859 37.6563C154.425 37.3256 155.038 37.1603 155.699 37.1603C156.387 37.1603 157.027 37.3283 157.619 37.6643C158.217 38.0003 158.697 38.4936 159.059 39.1443C159.427 39.795 159.611 40.5896 159.611 41.5283C159.611 42.4936 159.433 43.307 159.075 43.9683C158.718 44.6296 158.243 45.131 157.651 45.4723C157.059 45.8083 156.409 45.9763 155.699 45.9763ZM169.177 45.9763C168.34 45.9763 167.609 45.843 166.985 45.5763C166.361 45.3096 165.876 44.9096 165.529 44.3763C165.182 43.8376 165.009 43.171 165.009 42.3763C165.009 42.2856 165.009 42.2056 165.009 42.1363C165.009 42.0616 165.009 41.979 165.009 41.8883H167.113C167.113 41.9683 167.113 42.043 167.113 42.1123C167.113 42.1763 167.113 42.251 167.113 42.3363C167.113 42.9763 167.286 43.4563 167.633 43.7763C167.985 44.091 168.502 44.2483 169.185 44.2483C169.873 44.2483 170.398 44.1336 170.761 43.9043C171.129 43.675 171.313 43.307 171.313 42.8003C171.313 42.4323 171.188 42.1203 170.937 41.8643C170.692 41.603 170.353 41.3736 169.921 41.1763C169.489 40.979 168.998 40.795 168.449 40.6243C167.83 40.4323 167.268 40.1843 166.761 39.8803C166.254 39.5763 165.849 39.1923 165.545 38.7283C165.241 38.2643 165.089 37.6936 165.089 37.0163C165.089 36.339 165.262 35.763 165.609 35.2883C165.961 34.8136 166.441 34.4536 167.049 34.2083C167.662 33.9576 168.358 33.8323 169.137 33.8323C169.953 33.8323 170.67 33.9603 171.289 34.2163C171.913 34.4723 172.401 34.8536 172.753 35.3603C173.105 35.867 173.281 36.499 173.281 37.2563C173.281 37.3576 173.281 37.4456 173.281 37.5203C173.281 37.595 173.281 37.6803 173.281 37.7763H171.169C171.169 37.707 171.169 37.6376 171.169 37.5683C171.169 37.4936 171.169 37.4216 171.169 37.3523C171.169 36.7443 171.004 36.2963 170.673 36.0083C170.342 35.715 169.841 35.5683 169.169 35.5683C168.513 35.5683 168.009 35.683 167.657 35.9123C167.305 36.1416 167.129 36.507 167.129 37.0083C167.129 37.3816 167.249 37.6936 167.489 37.9443C167.729 38.195 168.057 38.4136 168.473 38.6003C168.894 38.7816 169.372 38.9656 169.905 39.1523C170.614 39.387 171.228 39.6536 171.745 39.9523C172.262 40.2456 172.662 40.6136 172.945 41.0563C173.228 41.4936 173.369 42.051 173.369 42.7283C173.369 43.4216 173.193 44.011 172.841 44.4963C172.494 44.9763 172.006 45.3443 171.377 45.6003C170.753 45.851 170.02 45.9763 169.177 45.9763ZM179.038 45.9603C178.734 45.9603 178.425 45.931 178.11 45.8723C177.795 45.8136 177.507 45.7043 177.246 45.5443C176.985 45.3843 176.774 45.1496 176.614 44.8403C176.454 44.531 176.374 44.123 176.374 43.6163C176.374 43.499 176.374 43.3816 176.374 43.2643C176.374 43.1416 176.374 43.0163 176.374 42.8883V38.9843H174.366V37.3043H175.182C175.459 37.3043 175.678 37.2936 175.838 37.2723C175.998 37.2456 176.115 37.187 176.19 37.0963C176.265 37.0056 176.313 36.8643 176.334 36.6723C176.361 36.475 176.374 36.203 176.374 35.8563V34.5043H178.486V37.3043H181.014V38.9843H178.486V42.3923C178.486 42.4936 178.486 42.595 178.486 42.6963C178.486 42.7923 178.486 42.8856 178.486 42.9763C178.486 43.371 178.534 43.6883 178.63 43.9283C178.726 44.1683 178.953 44.2883 179.31 44.2883C179.481 44.2883 179.641 44.2723 179.79 44.2403C179.945 44.2083 180.059 44.1763 180.134 44.1443V45.7923C180.033 45.8296 179.886 45.867 179.694 45.9043C179.502 45.9416 179.283 45.9603 179.038 45.9603ZM186.545 45.9683C185.649 45.9683 184.859 45.7816 184.177 45.4083C183.494 45.0296 182.958 44.507 182.569 43.8403C182.185 43.1736 181.993 42.411 181.993 41.5523C181.993 40.6883 182.185 39.9283 182.569 39.2723C182.958 38.611 183.494 38.0936 184.177 37.7203C184.859 37.347 185.649 37.1603 186.545 37.1603C187.441 37.1603 188.23 37.347 188.913 37.7203C189.595 38.0936 190.129 38.611 190.513 39.2723C190.902 39.9283 191.097 40.6883 191.097 41.5523C191.097 42.411 190.902 43.1736 190.513 43.8403C190.129 44.507 189.595 45.0296 188.913 45.4083C188.23 45.7816 187.441 45.9683 186.545 45.9683ZM186.545 44.2483C187.03 44.2483 187.454 44.1363 187.817 43.9123C188.179 43.6883 188.462 43.3763 188.665 42.9763C188.867 42.571 188.969 42.0963 188.969 41.5523C188.969 41.0083 188.867 40.539 188.665 40.1443C188.462 39.7443 188.179 39.435 187.817 39.2163C187.454 38.9976 187.03 38.8883 186.545 38.8883C186.065 38.8883 185.641 38.9976 185.273 39.2163C184.91 39.435 184.627 39.7443 184.425 40.1443C184.222 40.539 184.121 41.0083 184.121 41.5523C184.121 42.0963 184.222 42.571 184.425 42.9763C184.627 43.3763 184.91 43.6883 185.273 43.9123C185.641 44.1363 186.065 44.2483 186.545 44.2483ZM192.837 45.8003V37.3043H194.941V40.1283L194.453 39.8563C194.507 39.4883 194.605 39.1416 194.749 38.8163C194.893 38.4856 195.085 38.1976 195.325 37.9523C195.565 37.7016 195.856 37.507 196.197 37.3683C196.539 37.2296 196.928 37.1603 197.365 37.1603C197.712 37.1603 197.984 37.187 198.181 37.2403C198.384 37.2883 198.509 37.3283 198.557 37.3603L198.173 39.2883C198.12 39.251 198.011 39.2056 197.845 39.1523C197.685 39.0936 197.469 39.0643 197.197 39.0643C196.765 39.0643 196.403 39.139 196.109 39.2883C195.821 39.4323 195.592 39.6296 195.421 39.8803C195.251 40.1256 195.128 40.3976 195.053 40.6963C194.979 40.9896 194.941 41.283 194.941 41.5763V45.8003H192.837ZM200.512 42.2323V40.7363H206.456L206.216 41.1363C206.216 41.1043 206.216 41.0696 206.216 41.0323C206.216 40.9896 206.216 40.955 206.216 40.9283C206.216 40.5603 206.133 40.2163 205.968 39.8963C205.803 39.571 205.552 39.3096 205.216 39.1123C204.88 38.9096 204.453 38.8083 203.936 38.8083C203.424 38.8083 202.979 38.9176 202.6 39.1363C202.227 39.3496 201.936 39.659 201.728 40.0643C201.525 40.4696 201.424 40.955 201.424 41.5203C201.424 42.1016 201.523 42.603 201.72 43.0243C201.917 43.4403 202.205 43.7603 202.584 43.9843C202.968 44.203 203.435 44.3123 203.984 44.3123C204.357 44.3123 204.68 44.2776 204.952 44.2083C205.224 44.139 205.445 44.0456 205.616 43.9283C205.792 43.8056 205.923 43.675 206.008 43.5363C206.099 43.3976 206.152 43.259 206.168 43.1203H208.264C208.232 43.4776 208.112 43.827 207.904 44.1683C207.701 44.5043 207.416 44.811 207.048 45.0883C206.68 45.3603 206.232 45.579 205.704 45.7443C205.181 45.9043 204.584 45.9843 203.912 45.9843C203 45.9843 202.203 45.7976 201.52 45.4243C200.837 45.051 200.304 44.531 199.92 43.8643C199.541 43.1976 199.352 42.435 199.352 41.5763C199.352 40.6963 199.544 39.9256 199.928 39.2643C200.317 38.603 200.856 38.0883 201.544 37.7203C202.232 37.347 203.021 37.1603 203.912 37.1603C204.829 37.1603 205.621 37.347 206.288 37.7203C206.96 38.0936 207.477 38.6136 207.84 39.2803C208.203 39.9416 208.384 40.7123 208.384 41.5923C208.384 41.7043 208.381 41.8243 208.376 41.9523C208.371 42.0803 208.363 42.1736 208.352 42.2323H200.512Z" fill="white"/>
<path d="M79.987 25.8003V15.4753H82.577C83.2583 15.4753 83.872 15.5943 84.418 15.8323C84.9687 16.0703 85.4377 16.4133 85.825 16.8613C86.217 17.3046 86.518 17.846 86.728 18.4853C86.938 19.12 87.043 19.8363 87.043 20.6343C87.043 21.4323 86.938 22.151 86.728 22.7903C86.518 23.425 86.217 23.9663 85.825 24.4143C85.4377 24.8623 84.9687 25.2053 84.418 25.4433C83.872 25.6813 83.2583 25.8003 82.577 25.8003H79.987ZM81.191 25.4293L80.652 24.7503H82.437C83.0997 24.7503 83.6853 24.5846 84.194 24.2533C84.7073 23.9173 85.1087 23.4413 85.398 22.8253C85.6873 22.2093 85.832 21.479 85.832 20.6343C85.832 19.785 85.6873 19.0546 85.398 18.4433C85.1087 17.8273 84.7073 17.3536 84.194 17.0223C83.6853 16.691 83.0997 16.5253 82.437 16.5253H80.652L81.191 15.8463V25.4293ZM92.342 25.9333C91.5953 25.9333 90.935 25.7676 90.361 25.4363C89.7917 25.1003 89.3437 24.643 89.017 24.0643C88.695 23.481 88.534 22.8183 88.534 22.0763C88.534 21.3343 88.695 20.6763 89.017 20.1023C89.3437 19.5283 89.7917 19.078 90.361 18.7513C90.935 18.4246 91.5953 18.2613 92.342 18.2613C93.0887 18.2613 93.7467 18.4246 94.316 18.7513C94.89 19.078 95.338 19.5283 95.66 20.1023C95.9867 20.6763 96.15 21.3343 96.15 22.0763C96.15 22.8183 95.9867 23.481 95.66 24.0643C95.338 24.643 94.89 25.1003 94.316 25.4363C93.7467 25.7676 93.0887 25.9333 92.342 25.9333ZM92.342 24.8413C92.8553 24.8413 93.308 24.727 93.7 24.4983C94.092 24.2696 94.3977 23.9476 94.617 23.5323C94.841 23.117 94.953 22.6316 94.953 22.0763C94.953 21.521 94.841 21.0403 94.617 20.6343C94.3977 20.2236 94.092 19.9086 93.7 19.6893C93.308 19.4653 92.8553 19.3533 92.342 19.3533C91.8333 19.3533 91.3807 19.4653 90.984 19.6893C90.592 19.9086 90.284 20.2236 90.06 20.6343C89.8407 21.0403 89.731 21.521 89.731 22.0763C89.731 22.6316 89.8407 23.117 90.06 23.5323C90.284 23.9476 90.592 24.2696 90.984 24.4983C91.3807 24.727 91.8333 24.8413 92.342 24.8413ZM103.788 25.8003L101.709 18.3663H102.766L104.733 25.2753H104.516L105.818 18.3663H107.057L105.454 25.8003H103.788ZM98.7624 25.8003L97.1454 18.3663H98.3844L99.7004 25.2753H99.4834L101.429 18.3663H102.486L100.435 25.8003H98.7624ZM113.87 25.8003V22.2373C113.87 22.0226 113.87 21.8476 113.87 21.7123C113.87 21.5723 113.87 21.4393 113.87 21.3133C113.87 20.926 113.804 20.5876 113.674 20.2983C113.543 20.009 113.338 19.785 113.058 19.6263C112.778 19.4676 112.411 19.3883 111.959 19.3883C111.562 19.3883 111.193 19.491 110.853 19.6963C110.517 19.897 110.246 20.17 110.041 20.5153C109.84 20.856 109.74 21.2386 109.74 21.6633L109.061 21.4043C109.061 20.821 109.203 20.2913 109.488 19.8153C109.777 19.3393 110.16 18.9613 110.636 18.6813C111.116 18.3966 111.639 18.2543 112.204 18.2543C112.778 18.2543 113.279 18.364 113.709 18.5833C114.138 18.8026 114.469 19.1176 114.703 19.5283C114.941 19.9343 115.06 20.4243 115.06 20.9983C115.06 21.2036 115.06 21.4276 115.06 21.6703C115.06 21.913 115.06 22.1393 115.06 22.3493V25.8003H113.87ZM108.55 25.8003V18.3663H109.74V25.8003H108.55ZM118.416 14.8593V25.8003H117.24V14.8593H118.416ZM124.115 25.9333C123.369 25.9333 122.708 25.7676 122.134 25.4363C121.565 25.1003 121.117 24.643 120.79 24.0643C120.468 23.481 120.307 22.8183 120.307 22.0763C120.307 21.3343 120.468 20.6763 120.79 20.1023C121.117 19.5283 121.565 19.078 122.134 18.7513C122.708 18.4246 123.369 18.2613 124.115 18.2613C124.862 18.2613 125.52 18.4246 126.089 18.7513C126.663 19.078 127.111 19.5283 127.433 20.1023C127.76 20.6763 127.923 21.3343 127.923 22.0763C127.923 22.8183 127.76 23.481 127.433 24.0643C127.111 24.643 126.663 25.1003 126.089 25.4363C125.52 25.7676 124.862 25.9333 124.115 25.9333ZM124.115 24.8413C124.629 24.8413 125.081 24.727 125.473 24.4983C125.865 24.2696 126.171 23.9476 126.39 23.5323C126.614 23.117 126.726 22.6316 126.726 22.0763C126.726 21.521 126.614 21.0403 126.39 20.6343C126.171 20.2236 125.865 19.9086 125.473 19.6893C125.081 19.4653 124.629 19.3533 124.115 19.3533C123.607 19.3533 123.154 19.4653 122.757 19.6893C122.365 19.9086 122.057 20.2236 121.833 20.6343C121.614 21.0403 121.504 21.521 121.504 22.0763C121.504 22.6316 121.614 23.117 121.833 23.5323C122.057 23.9476 122.365 24.2696 122.757 24.4983C123.154 24.727 123.607 24.8413 124.115 24.8413ZM132.379 25.9403C131.814 25.9403 131.32 25.8516 130.895 25.6743C130.475 25.497 130.148 25.2426 129.915 24.9113C129.682 24.5753 129.565 24.174 129.565 23.7073C129.565 23.222 129.691 22.8183 129.943 22.4963C130.195 22.1696 130.55 21.9153 131.007 21.7333C131.464 21.5513 131.996 21.43 132.603 21.3693C133.518 21.276 134.169 21.185 134.556 21.0963C134.943 21.003 135.137 20.8536 135.137 20.6483C135.137 20.6436 135.137 20.6413 135.137 20.6413C135.137 20.6366 135.137 20.632 135.137 20.6273C135.137 20.198 134.962 19.8783 134.612 19.6683C134.262 19.4536 133.756 19.3463 133.093 19.3463C132.402 19.3463 131.866 19.4676 131.483 19.7103C131.1 19.9483 130.909 20.3356 130.909 20.8723H129.733C129.733 20.317 129.875 19.8456 130.16 19.4583C130.445 19.0663 130.839 18.7676 131.343 18.5623C131.852 18.357 132.437 18.2543 133.1 18.2543C133.707 18.2543 134.253 18.3476 134.738 18.5343C135.228 18.7163 135.615 18.9893 135.9 19.3533C136.189 19.7126 136.334 20.1583 136.334 20.6903C136.334 20.7883 136.334 20.8863 136.334 20.9843C136.334 21.0776 136.334 21.1733 136.334 21.2713V24.4003C136.334 24.5636 136.341 24.7223 136.355 24.8763C136.369 25.0303 136.392 25.1656 136.425 25.2823C136.467 25.4223 136.514 25.5366 136.565 25.6253C136.616 25.7093 136.658 25.7676 136.691 25.8003H135.494C135.471 25.777 135.436 25.7233 135.389 25.6393C135.342 25.5506 135.298 25.448 135.256 25.3313C135.223 25.238 135.198 25.1213 135.179 24.9813C135.16 24.8366 135.151 24.6873 135.151 24.5333L135.347 24.6663C135.202 24.9183 134.99 25.14 134.71 25.3313C134.435 25.5226 134.101 25.672 133.709 25.7793C133.317 25.8866 132.874 25.9403 132.379 25.9403ZM132.568 24.8693C133.049 24.8693 133.483 24.797 133.87 24.6523C134.257 24.503 134.565 24.2836 134.794 23.9943C135.023 23.705 135.137 23.3456 135.137 22.9163V21.4393L135.403 21.8873C135.104 22.004 134.731 22.0996 134.283 22.1743C133.84 22.2443 133.375 22.3026 132.89 22.3493C132.185 22.4146 131.653 22.5383 131.294 22.7203C130.939 22.9023 130.762 23.208 130.762 23.6373C130.762 24.0433 130.909 24.3513 131.203 24.5613C131.497 24.7666 131.952 24.8693 132.568 24.8693ZM141.379 25.9403C140.768 25.9403 140.208 25.7933 139.699 25.4993C139.191 25.2006 138.785 24.7643 138.481 24.1903C138.178 23.6116 138.026 22.907 138.026 22.0763C138.026 21.2596 138.18 20.5666 138.488 19.9973C138.796 19.428 139.205 18.9963 139.713 18.7023C140.222 18.4036 140.777 18.2543 141.379 18.2543C141.953 18.2543 142.49 18.392 142.989 18.6673C143.493 18.938 143.899 19.316 144.207 19.8013C144.515 20.2866 144.669 20.849 144.669 21.4883C144.669 21.5023 144.669 21.5163 144.669 21.5303C144.669 21.5443 144.669 21.5583 144.669 21.5723L143.815 21.6073C143.815 21.5933 143.815 21.5793 143.815 21.5653C143.815 21.5466 143.815 21.5303 143.815 21.5163C143.815 21.1103 143.708 20.744 143.493 20.4173C143.283 20.0906 143.006 19.8316 142.66 19.6403C142.315 19.4443 141.944 19.3463 141.547 19.3463C140.885 19.3463 140.336 19.5703 139.902 20.0183C139.468 20.4616 139.251 21.1476 139.251 22.0763C139.251 23.0003 139.468 23.6886 139.902 24.1413C140.341 24.5893 140.889 24.8133 141.547 24.8133C141.963 24.8133 142.341 24.713 142.681 24.5123C143.027 24.3116 143.302 24.0433 143.507 23.7073C143.713 23.3666 143.815 22.9863 143.815 22.5663L144.669 22.5873C144.669 23.222 144.522 23.7936 144.228 24.3023C143.934 24.8063 143.538 25.2053 143.038 25.4993C142.544 25.7933 141.991 25.9403 141.379 25.9403ZM143.815 25.8003V14.8593H145.012V25.8003H143.815ZM151.521 25.8003V19.4163H149.897V18.3663H151.521V17.4073C151.521 17.076 151.559 16.7726 151.633 16.4973C151.713 16.2173 151.825 15.97 151.969 15.7553C152.119 15.5406 152.298 15.3586 152.508 15.2093C152.718 15.06 152.956 14.948 153.222 14.8733C153.493 14.794 153.787 14.7543 154.104 14.7543C154.333 14.7543 154.515 14.7683 154.65 14.7963C154.786 14.8243 154.877 14.85 154.923 14.8733V15.9233C154.867 15.9046 154.774 15.8836 154.643 15.8603C154.513 15.837 154.373 15.8253 154.223 15.8253C153.906 15.8253 153.647 15.8743 153.446 15.9723C153.25 16.0703 153.099 16.2056 152.991 16.3783C152.884 16.5463 152.809 16.7376 152.767 16.9523C152.73 17.167 152.711 17.391 152.711 17.6243V18.3663H154.881V19.4163H152.711V25.8003H151.521ZM156.264 25.8003V18.3663H157.454V20.6483L157.062 20.5083C157.09 20.233 157.16 19.9623 157.272 19.6963C157.384 19.4256 157.538 19.183 157.734 18.9683C157.935 18.749 158.185 18.5763 158.483 18.4503C158.782 18.3196 159.132 18.2543 159.533 18.2543C159.832 18.2543 160.075 18.28 160.261 18.3313C160.453 18.378 160.572 18.4153 160.618 18.4433L160.31 19.6123C160.264 19.5796 160.168 19.5376 160.023 19.4863C159.883 19.435 159.683 19.4093 159.421 19.4093C159.034 19.4093 158.712 19.4793 158.455 19.6193C158.203 19.7593 158.003 19.946 157.853 20.1793C157.709 20.408 157.606 20.6576 157.545 20.9283C157.485 21.199 157.454 21.4673 157.454 21.7333V25.8003H156.264ZM165.281 25.9333C164.535 25.9333 163.874 25.7676 163.3 25.4363C162.731 25.1003 162.283 24.643 161.956 24.0643C161.634 23.481 161.473 22.8183 161.473 22.0763C161.473 21.3343 161.634 20.6763 161.956 20.1023C162.283 19.5283 162.731 19.078 163.3 18.7513C163.874 18.4246 164.535 18.2613 165.281 18.2613C166.028 18.2613 166.686 18.4246 167.255 18.7513C167.829 19.078 168.277 19.5283 168.599 20.1023C168.926 20.6763 169.089 21.3343 169.089 22.0763C169.089 22.8183 168.926 23.481 168.599 24.0643C168.277 24.643 167.829 25.1003 167.255 25.4363C166.686 25.7676 166.028 25.9333 165.281 25.9333ZM165.281 24.8413C165.795 24.8413 166.247 24.727 166.639 24.4983C167.031 24.2696 167.337 23.9476 167.556 23.5323C167.78 23.117 167.892 22.6316 167.892 22.0763C167.892 21.521 167.78 21.0403 167.556 20.6343C167.337 20.2236 167.031 19.9086 166.639 19.6893C166.247 19.4653 165.795 19.3533 165.281 19.3533C164.773 19.3533 164.32 19.4653 163.923 19.6893C163.531 19.9086 163.223 20.2236 162.999 20.6343C162.78 21.0403 162.67 21.521 162.67 22.0763C162.67 22.6316 162.78 23.117 162.999 23.5323C163.223 23.9476 163.531 24.2696 163.923 24.4983C164.32 24.727 164.773 24.8413 165.281 24.8413ZM175.519 25.8003V22.5173C175.519 22.228 175.519 21.9783 175.519 21.7683C175.519 21.5536 175.519 21.374 175.519 21.2293C175.519 21.0473 175.505 20.8513 175.477 20.6413C175.454 20.4266 175.395 20.226 175.302 20.0393C175.209 19.848 175.062 19.6916 174.861 19.5703C174.665 19.449 174.392 19.3883 174.042 19.3883C173.687 19.3883 173.389 19.4583 173.146 19.5983C172.903 19.7336 172.707 19.9133 172.558 20.1373C172.409 20.3613 172.301 20.6086 172.236 20.8793C172.171 21.1453 172.138 21.409 172.138 21.6703L171.466 21.3973C171.466 20.8373 171.583 20.3193 171.816 19.8433C172.049 19.3673 172.376 18.9846 172.796 18.6953C173.221 18.4013 173.718 18.2543 174.287 18.2543C174.852 18.2543 175.311 18.3686 175.666 18.5973C176.021 18.826 176.282 19.141 176.45 19.5423C176.618 19.9436 176.702 20.4056 176.702 20.9283C176.702 21.115 176.702 21.3553 176.702 21.6493C176.702 21.9386 176.702 22.27 176.702 22.6433V25.8003H175.519ZM170.948 25.8003V18.3663H172.138V25.8003H170.948ZM180.076 25.8003V22.5173C180.076 22.2 180.076 21.9386 180.076 21.7333C180.076 21.5233 180.076 21.346 180.076 21.2013C180.076 21.0193 180.064 20.8233 180.041 20.6133C180.018 20.4033 179.959 20.2073 179.866 20.0253C179.773 19.8386 179.623 19.687 179.418 19.5703C179.217 19.449 178.935 19.3883 178.571 19.3883C178.212 19.3883 177.911 19.456 177.668 19.5913C177.43 19.7266 177.239 19.904 177.094 20.1233C176.954 20.3426 176.854 20.5806 176.793 20.8373C176.732 21.0893 176.702 21.332 176.702 21.5653L176.03 21.3063C176.03 20.7743 176.142 20.2773 176.366 19.8153C176.595 19.3486 176.917 18.973 177.332 18.6883C177.752 18.399 178.249 18.2543 178.823 18.2543C179.36 18.2543 179.808 18.3593 180.167 18.5693C180.531 18.7793 180.804 19.0756 180.986 19.4583C181.173 19.8363 181.266 20.2866 181.266 20.8093C181.266 21.0053 181.266 21.248 181.266 21.5373C181.266 21.8266 181.266 22.1533 181.266 22.5173V25.8003H180.076Z" fill="white"/>
</svg>
